<svg xmlns="http://www.w3.org/2000/svg" xmlns:xlink="http://www.w3.org/1999/xlink" version="1.1" x="0px" y="0px" viewBox="0 0 100 58.901250000000005" enable-background="new 0 0 100 47.121" xml:space="preserve"><g><path fill="#000000" d="M99.164,27.311l-7.971,7.971H43.956c-3.985,7.033-11.722,11.839-20.513,11.839   C10.549,47.121,0,36.571,0,23.56S10.549,0,23.443,0c8.908,0,16.645,4.923,20.63,12.19h13.832l7.15,10.198l6.33-6.564h1.875   l6.681,6.681l9.495-6.681h1.407l8.322,7.971C100.219,24.966,100.336,26.022,99.164,27.311z M14.652,31.882   c4.571,0,8.322-3.751,8.322-8.322s-3.751-8.322-8.322-8.322c-4.572,0-8.322,3.751-8.322,8.322S10.08,31.882,14.652,31.882z"/></g><text x="0" y="62.121" fill="#000000" font-size="5px" font-weight="bold" font-family="'Helvetica Neue', Helvetica, Arial-Unicode, Arial, Sans-serif">Created by John Caserta</text><text x="0" y="67.12100000000001" fill="#000000" font-size="5px" font-weight="bold" font-family="'Helvetica Neue', Helvetica, Arial-Unicode, Arial, Sans-serif">from the Noun Project</text></svg>