<?xml version="1.0" encoding="UTF-8" standalone="no"?>
<!-- Created with Inkscape (http://www.inkscape.org/) -->

<svg
   xmlns:dc="http://purl.org/dc/elements/1.1/"
   xmlns:cc="http://creativecommons.org/ns#"
   xmlns:rdf="http://www.w3.org/1999/02/22-rdf-syntax-ns#"
   xmlns:svg="http://www.w3.org/2000/svg"
   xmlns="http://www.w3.org/2000/svg"
   xmlns:xlink="http://www.w3.org/1999/xlink"
   xmlns:sodipodi="http://sodipodi.sourceforge.net/DTD/sodipodi-0.dtd"
   xmlns:inkscape="http://www.inkscape.org/namespaces/inkscape"
   width="540"
   height="700"
   id="svg27450"
   version="1.1"
   inkscape:version="0.92.2 (5c3e80d, 2017-08-06)"
   sodipodi:docname="tux6.svg"
   inkscape:export-filename="./tux-large.png"
   inkscape:export-xdpi="300"
   inkscape:export-ydpi="300">
  <title
     id="title20046">Tux</title>
  <sodipodi:namedview
     id="base"
     pagecolor="#ffffff"
     bordercolor="#666666"
     borderopacity="0.41176471"
     inkscape:pageopacity="0.0"
     inkscape:pageshadow="2"
     inkscape:zoom="0.70710677"
     inkscape:cx="149.05486"
     inkscape:cy="407.94841"
     inkscape:document-units="px"
     inkscape:current-layer="g4472"
     showgrid="false"
     inkscape:window-width="1920"
     inkscape:window-height="1163"
     inkscape:window-x="1920"
     inkscape:window-y="0"
     inkscape:window-maximized="1"
     fit-margin-top="0"
     fit-margin-left="0"
     fit-margin-right="0"
     fit-margin-bottom="0"
     showguides="true"
     inkscape:guide-bbox="true"
     inkscape:showpageshadow="false"
     showborder="true"
     inkscape:snap-intersection-paths="false"
     inkscape:object-paths="true"
     inkscape:object-nodes="false"
     inkscape:snap-smooth-nodes="false"
     inkscape:snap-nodes="true"
     inkscape:snap-page="true"
     inkscape:snap-bbox="true"
     inkscape:bbox-nodes="true"
     inkscape:snap-bbox-midpoints="true" />
  <defs
     id="defs27452">
    <linearGradient
       id="linearGradient28799-4">
      <stop
         id="stop28801-13"
         offset="0"
         style="stop-color:#fefefc;stop-opacity:1;" />
      <stop
         style="stop-color:#fefefc;stop-opacity:1"
         offset="0.75733864"
         id="stop28807-8" />
      <stop
         id="stop28803-8"
         offset="1"
         style="stop-color:#d4d4d4;stop-opacity:1" />
    </linearGradient>
    <radialGradient
       r="14.572236"
       fy="137.66095"
       fx="223.19559"
       cy="137.66095"
       cx="223.19559"
       gradientTransform="matrix(1.0857794,-0.03431182,0.03943781,1.2479887,-154.54194,-26.542647)"
       gradientUnits="userSpaceOnUse"
       id="radialGradient29032"
       xlink:href="#linearGradient28799-4"
       inkscape:collect="always" />
    <linearGradient
       id="linearGradient28799-5-4">
      <stop
         id="stop28801-1-2"
         offset="0"
         style="stop-color:#fefefc;stop-opacity:1;" />
      <stop
         style="stop-color:#fefefc;stop-opacity:1"
         offset="0.75733864"
         id="stop28807-2-5" />
      <stop
         id="stop28803-6-6"
         offset="1"
         style="stop-color:#d4d4d4;stop-opacity:1" />
    </linearGradient>
    <radialGradient
       r="14.572236"
       fy="137.66095"
       fx="223.19559"
       cy="137.66095"
       cx="223.19559"
       gradientTransform="matrix(0.81524244,-0.03431182,0.02961133,1.2479887,-129.43743,-26.542647)"
       gradientUnits="userSpaceOnUse"
       id="radialGradient29648"
       xlink:href="#linearGradient28799-5-4"
       inkscape:collect="always" />
    <linearGradient
       inkscape:collect="always"
       id="linearGradient14392-7">
      <stop
         style="stop-color:#3e2a06;stop-opacity:1"
         offset="0"
         id="stop14394-8" />
      <stop
         style="stop-color:#ad780a;stop-opacity:1"
         offset="1"
         id="stop14396-6" />
    </linearGradient>
    <linearGradient
       inkscape:collect="always"
       xlink:href="#linearGradient14392-7"
       id="linearGradient14477"
       gradientUnits="userSpaceOnUse"
       gradientTransform="matrix(0.87491199,0,0,0.81148755,60.367186,62.586953)"
       x1="442.03912"
       y1="371.54401"
       x2="490.12241"
       y2="293.58548" />
    <linearGradient
       inkscape:collect="always"
       xlink:href="#linearGradient14392-7"
       id="linearGradient14485"
       gradientUnits="userSpaceOnUse"
       gradientTransform="translate(4e-6,9.6185359e-6)"
       x1="442.03912"
       y1="371.54401"
       x2="490.12241"
       y2="293.58548" />
    <linearGradient
       inkscape:collect="always"
       xlink:href="#linearGradient14392-7"
       id="linearGradient14493"
       gradientUnits="userSpaceOnUse"
       gradientTransform="translate(4e-6,9.6185359e-6)"
       x1="442.03912"
       y1="371.54401"
       x2="490.12241"
       y2="293.58548" />
    <clipPath
       clipPathUnits="userSpaceOnUse"
       id="clipPath14186-9">
      <path
         inkscape:original-d="m 137.57703,281.0191 c 6.32494,-1.3585 11.99755,4.87308 16.86679,9.13228 6.42572,5.62067 -8.54781,26.01622 13.24488,19.8293 5.86081,-1.66388 6.89528,11.31183 10.16415,16.45304 4.09971,6.44793 11.58575,13.6827 13.65231,21.03883 1.58383,5.63779 1.34339,10.90606 -1.62666,15.95302 -3.57124,6.06857 -11.7907,10.42929 -18.78877,11.20919 -5.73056,0.63864 -11.87822,-3.8351 -17.38362,-5.54906 -12.31617,-3.83432 -23.77946,-5.82074 -36.09666,-9.65174 -2.50091,-0.77785 -8.28361,-2.638 -10.96988,-3.42629 -4.51043,-1.3236 -6.46556,-0.99271 -8.72046,-4.76819 -2.68251,-4.49147 0.68051,-9.72669 3.16379,-14.79408 4.06995,-8.30524 1.91195,-17.82603 0.46203,-25.51057 -0.92235,-4.8884 -0.66071,-7.92707 2.7425,-10.79139 4.99476,-4.20385 14.53027,-1.53186 20.35272,-4.08305 5.82246,-2.55119 6.66365,-13.6939 12.93688,-15.04129 z"
         sodipodi:nodetypes="ssssssssssssssss"
         inkscape:connector-curvature="0"
         id="path14188-1"
         d="m 137.57703,281.0191 c 1.59929,-0.66295 3.3982,-0.78361 5.10074,-0.46963 1.70253,0.31398 3.31141,1.04948 4.74342,2.02239 2.86402,1.94583 4.98821,4.77774 7.02263,7.57952 4.67189,6.43406 9.16868,13.00227 13.24488,19.8293 3.30635,5.53766 6.34352,11.25685 10.16415,16.45304 2.49398,3.3919 5.3066,6.53947 7.813,9.92221 2.50639,3.38273 4.72794,7.05586 5.83931,11.11662 1.44411,5.27653 0.88463,11.09291 -1.62666,15.95302 -1.76663,3.41896 -4.47646,6.35228 -7.77242,8.33898 -3.29595,1.9867 -7.17064,3.01444 -11.01635,2.87021 -6.11413,-0.2293 -11.69944,-3.28515 -17.38362,-5.54906 -11.58097,-4.6125 -24.15978,-6.0594 -36.09666,-9.65174 -3.66859,-1.10404 -7.27582,-2.4107 -10.96988,-3.42629 -1.64125,-0.45122 -3.30866,-0.8482 -4.85875,-1.55144 -1.55008,-0.70325 -2.999548,-1.7491 -3.86171,-3.21675 -0.666391,-1.13439 -0.948386,-2.47002 -0.930187,-3.78554 0.0182,-1.31552 0.325889,-2.61453 0.773815,-3.85158 0.895851,-2.47409 2.343262,-4.71374 3.320162,-7.15696 1.59511,-3.98935 1.88169,-8.38839 1.66657,-12.67942 -0.21511,-4.29103 -0.91078,-8.54478 -1.20454,-12.83115 -0.13118,-1.91406 -0.18066,-3.85256 0.18479,-5.73598 0.36545,-1.88343 1.17577,-3.72459 2.55771,-5.05541 1.27406,-1.22693 2.96492,-1.95531 4.69643,-2.31651 1.73151,-0.3612 3.51533,-0.37747 5.28367,-0.33762 1.76833,0.0399 3.54067,0.13425 5.30351,-0.0106 1.76284,-0.14488 3.53347,-0.54055 5.06911,-1.41828 1.45996,-0.83447 2.65433,-2.0745 3.64374,-3.43424 0.9894,-1.35974 1.78909,-2.84573 2.60891,-4.31396 0.81983,-1.46823 1.66834,-2.93151 2.74157,-4.22611 1.07324,-1.2946 2.38923,-2.42304 3.94266,-3.06698"
         style="fill:#402c07;fill-opacity:1;stroke:none" />
    </clipPath>
    <inkscape:path-effect
       is_visible="true"
       id="path-effect4669-1"
       effect="spiro" />
    <inkscape:path-effect
       is_visible="true"
       id="path-effect4669-4-3"
       effect="spiro" />
    <inkscape:path-effect
       effect="spiro"
       id="path-effect14972-2-2"
       is_visible="true" />
    <inkscape:path-effect
       effect="spiro"
       id="path-effect15017-9"
       is_visible="true" />
    <clipPath
       clipPathUnits="userSpaceOnUse"
       id="clipPath15031-3">
      <path
         style="fill:none;stroke:#729fcf;stroke-width:0.125;stroke-linecap:butt;stroke-linejoin:miter;stroke-miterlimit:4;stroke-dasharray:none;stroke-opacity:1"
         d="m 248.06066,184.61218 c -2.60091,3.4397 -5.23338,6.85555 -7.89695,10.24696 -2.83301,3.60715 -5.70116,7.1866 -8.58729,10.75139 -3.54135,4.37407 -7.15155,8.79286 -9.44912,13.93045 -1.97407,4.41422 -2.91014,9.20748 -4.26498,13.84932 -1.53862,5.27153 -3.62627,10.37023 -5.97071,15.33612 -2.1648,4.58539 -4.54978,9.06293 -6.93891,13.53553 -1.73823,3.25407 -3.50515,6.58104 -4.10782,10.22071 -0.47627,2.87632 -0.19849,5.84423 0.53376,8.66626 0.73224,2.82202 1.90964,5.5106 3.23775,8.10601 5.66724,11.07504 14.17003,20.62168 24.24176,27.92472 4.57063,3.31418 9.46669,6.18109 14.60245,8.52595 2.78247,1.27041 5.71355,2.40436 8.77186,2.45744 1.52915,0.0265 3.0741,-0.22544 4.47434,-0.84055 1.40024,-0.6151 2.65068,-1.60373 3.48254,-2.88709 1.02278,-1.5779 1.36992,-3.53829 1.16461,-5.40743 -0.2053,-1.86914 -0.93484,-3.65294 -1.91324,-5.25873 -2.38997,-3.92251 -6.1652,-6.76055 -9.79642,-9.57343 -7.84055,-6.07358 -15.42466,-12.48038 -22.68212,-19.23996 -2.04911,-1.90854 -4.0984,-3.87759 -5.53019,-6.28412 -1.3943,-2.34352 -2.14763,-5.01375 -2.65783,-7.69253 -1.39963,-7.34872 -1.0404,-15.0827 1.45958,-22.13343 0.97802,-2.75834 2.27066,-5.39225 3.51815,-8.03965 2.1622,-4.58855 4.21133,-9.26299 7.04933,-13.46723 3.53268,-5.23334 8.24484,-9.67275 11.15147,-15.27803 2.45457,-4.7335 3.49353,-10.05742 4.36185,-15.31831 0.66531,-4.03089 1.24751,-8.07549 1.74613,-12.13037"
         id="path15033-2"
         inkscape:connector-curvature="0"
         inkscape:original-d="m 248.06066,184.61218 c 0,0 -5.10626,6.34527 -7.89695,10.24696 -2.7907,3.9017 -5.73652,6.64881 -8.58729,10.75139 -2.85076,4.10259 -7.36482,9.43164 -9.44912,13.93045 -2.08429,4.49881 -2.32047,9.0356 -4.26498,13.84932 -1.94451,4.81371 -3.70129,10.64183 -5.97071,15.33612 -2.26943,4.69429 -5.37093,9.68473 -6.93891,13.53553 -1.56799,3.8508 -3.81119,5.72384 -4.10782,10.22071 -0.29663,4.49686 -0.57747,8.31749 3.77151,16.77227 4.34898,8.45478 17.23626,22.00721 24.24176,27.92472 7.00549,5.9175 9.39133,7.22492 14.60245,8.52595 5.21112,1.30104 13.85627,2.9981 16.72874,-1.2702 2.87246,-4.26829 2.27191,-5.96483 -0.74863,-10.66616 -3.02055,-4.70132 -4.82469,-5.30209 -9.79642,-9.57343 -4.97172,-4.27133 -18.63696,-14.87266 -22.68212,-19.23996 -4.04516,-4.36729 -7.10731,-3.41164 -5.53019,-6.28412 1.57712,-2.87249 -2.20738,-4.00856 -2.65783,-7.69253 -0.76361,-6.24511 0.9436,-18.71046 1.45958,-22.13343 0.51598,-3.42296 1.22371,-2.92446 3.51815,-8.03965 2.29444,-5.11519 4.12424,-8.62435 7.04933,-13.46723 2.92509,-4.84289 8.62493,-10.12787 11.15147,-15.27803 2.52654,-5.15017 3.50393,-10.72068 4.36185,-15.31831 0.85792,-4.59763 1.74613,-12.13037 1.74613,-12.13037 z"
         sodipodi:nodetypes="czzzzzzzzzzzzzzzszzzzzc" />
    </clipPath>
    <inkscape:path-effect
       is_visible="true"
       id="path-effect29716-6-1"
       effect="spiro" />
    <clipPath
       clipPathUnits="userSpaceOnUse"
       id="clipPath14822-9">
      <path
         sodipodi:nodetypes="aaaasssaccaa"
         inkscape:connector-curvature="0"
         d="m 386.1875,285.32775 c -0.40516,-1.10369 -1.11845,-2.08156 -1.9907,-2.86987 -0.87226,-0.78832 -1.90049,-1.39229 -2.98278,-1.85155 -2.16459,-0.91852 -4.52053,-1.26149 -6.83152,-1.69556 -2.17919,-0.40931 -4.34179,-0.90631 -6.52782,-1.27734 -2.27136,-0.38551 -4.6179,-0.63213 -6.8653,-0.1253 -1.96583,0.44333 -3.7845,1.45879 -5.27172,2.81864 -1.48723,1.35984 -2.64911,3.0564 -3.48499,4.89007 -1.47218,3.22952 -1.93451,6.86503 -1.65394,10.40316 0.20882,2.63325 0.87532,5.34594 2.60877,7.33912 1.40065,1.61052 3.38733,2.61526 5.43398,3.22092 3.52502,1.04316 7.36663,0.98822 10.86038,-0.1553 5.76689,-1.93113 10.87568,-5.77387 14.33034,-10.77903 1.13861,-1.64963 2.11217,-3.44809 2.5532,-5.4034 0.33597,-1.48955 0.34831,-3.08112 -0.1779,-4.51456"
         id="path14824-1"
         inkscape:original-d="m 386.1875,285.32775 c -2.36571,-3.81321 -7.59294,-4.9003 -11.805,-6.41698 -2.08672,-0.75138 -4.32322,-1.04333 -6.52782,-1.27734 -2.27612,-0.2416 -4.71593,-0.91505 -6.8653,-0.1253 -3.64566,1.33955 -7.24986,3.80684 -8.75671,7.70871 -1.13743,2.94527 -1.80122,7.05909 -1.65394,10.40316 0.13075,2.96891 0.9633,5.07273 2.60877,7.33912 1.08803,1.49859 3.40096,2.67896 5.43398,3.22092 3.49923,0.93284 7.37483,0.82779 10.86038,-0.1553 5.98587,-2.2615 11.09272,-5.76885 14.33034,-10.77903 1.07459,-1.67639 2.15539,-3.45031 2.5532,-5.4034 0.30053,-1.4755 0.61519,-3.23621 -0.1779,-4.51456 z"
         style="fill:none;stroke:#ce5c00;stroke-width:1px;stroke-linecap:butt;stroke-linejoin:miter;stroke-opacity:1" />
    </clipPath>
    <clipPath
       clipPathUnits="userSpaceOnUse"
       id="clipPath14822-2-4">
      <path
         sodipodi:nodetypes="aaaasssaccaa"
         inkscape:connector-curvature="0"
         d="m 386.1875,285.32775 c -0.40516,-1.10369 -1.11845,-2.08156 -1.9907,-2.86987 -0.87226,-0.78832 -1.90049,-1.39229 -2.98278,-1.85155 -2.16459,-0.91852 -4.52053,-1.26149 -6.83152,-1.69556 -2.17919,-0.40931 -4.34179,-0.90631 -6.52782,-1.27734 -2.27136,-0.38551 -4.6179,-0.63213 -6.8653,-0.1253 -1.96583,0.44333 -3.7845,1.45879 -5.27172,2.81864 -1.48723,1.35984 -2.64911,3.0564 -3.48499,4.89007 -1.47218,3.22952 -1.93451,6.86503 -1.65394,10.40316 0.20882,2.63325 0.87532,5.34594 2.60877,7.33912 1.40065,1.61052 3.38733,2.61526 5.43398,3.22092 3.52502,1.04316 7.36663,0.98822 10.86038,-0.1553 5.76689,-1.93113 10.87568,-5.77387 14.33034,-10.77903 1.13861,-1.64963 2.11217,-3.44809 2.5532,-5.4034 0.33597,-1.48955 0.34831,-3.08112 -0.1779,-4.51456"
         id="path14824-6-5"
         inkscape:original-d="m 386.1875,285.32775 c -2.36571,-3.81321 -7.59294,-4.9003 -11.805,-6.41698 -2.08672,-0.75138 -4.32322,-1.04333 -6.52782,-1.27734 -2.27612,-0.2416 -4.71593,-0.91505 -6.8653,-0.1253 -3.64566,1.33955 -7.24986,3.80684 -8.75671,7.70871 -1.13743,2.94527 -1.80122,7.05909 -1.65394,10.40316 0.13075,2.96891 0.9633,5.07273 2.60877,7.33912 1.08803,1.49859 3.40096,2.67896 5.43398,3.22092 3.49923,0.93284 7.37483,0.82779 10.86038,-0.1553 5.98587,-2.2615 11.09272,-5.76885 14.33034,-10.77903 1.07459,-1.67639 2.15539,-3.45031 2.5532,-5.4034 0.30053,-1.4755 0.61519,-3.23621 -0.1779,-4.51456 z"
         style="fill:none;stroke:#ce5c00;stroke-width:1px;stroke-linecap:butt;stroke-linejoin:miter;stroke-opacity:1" />
    </clipPath>
    <linearGradient
       id="linearGradient14518-6">
      <stop
         id="stop14540-0"
         offset="0"
         style="stop-color:#110800;stop-opacity:1;" />
      <stop
         style="stop-color:#a65a00;stop-opacity:0.80000001;"
         offset="0.59066743"
         id="stop14542-5" />
      <stop
         style="stop-color:#ff921e;stop-opacity:0;"
         offset="1"
         id="stop14522-4" />
    </linearGradient>
    <inkscape:path-effect
       is_visible="true"
       id="path-effect29716-0-0"
       effect="spiro" />
    <linearGradient
       id="linearGradient14518-2-2">
      <stop
         id="stop14540-5-0"
         offset="0"
         style="stop-color:#110800;stop-opacity:1;" />
      <stop
         style="stop-color:#a65a00;stop-opacity:0.80000001;"
         offset="0.59066743"
         id="stop14542-2-7" />
      <stop
         style="stop-color:#ff921e;stop-opacity:0;"
         offset="1"
         id="stop14522-2-1" />
    </linearGradient>
    <inkscape:path-effect
       is_visible="true"
       id="path-effect29716-0-8-3"
       effect="spiro" />
    <inkscape:path-effect
       effect="spiro"
       id="path-effect14300-7"
       is_visible="true" />
    <clipPath
       clipPathUnits="userSpaceOnUse"
       id="clipPath14489-3">
      <path
         style="fill:url(#linearGradient14493);fill-opacity:1;stroke:none"
         d="m 516.00562,331.8756 c -0.6714,1.71905 -1.62682,3.32679 -2.81579,4.73826 -2.6238,3.11482 -6.268,5.17039 -9.89648,7.01985 -6.1886,3.15437 -12.60169,5.92177 -18.41964,9.71654 -3.89802,2.54249 -7.4959,5.52671 -10.86016,8.74238 -2.87719,2.75012 -5.60582,5.68745 -8.83247,8.01771 -3.25567,2.35122 -7.01915,4.05426 -10.99061,4.6502 -4.83026,0.72481 -9.82134,-0.21289 -14.29898,-2.16416 -3.13754,-1.36728 -6.15569,-3.3229 -7.96301,-6.22931 -1.81425,-2.91754 -2.22807,-6.48813 -2.23266,-9.92375 -0.008,-6.07666 1.11824,-12.09004 2.17848,-18.07349 0.88097,-4.97177 1.71949,-9.95483 2.26013,-14.97502 0.98337,-9.13118 0.9763,-18.35278 0.3199,-27.51327 -0.10993,-1.53416 -0.23754,-3.0832 -0.008,-4.60412 0.22922,-1.52092 0.85475,-3.0367 2.02069,-4.03986 1.07696,-0.9266 2.52093,-1.33598 3.93947,-1.4145 1.41854,-0.0785 2.83404,0.14655 4.23982,0.35197 3.31254,0.48405 6.65159,0.8649 9.88917,1.71656 2.04284,0.53738 4.03315,1.25925 6.0722,1.81081 3.40258,0.92039 6.96639,1.36144 10.46739,0.95192 3.76917,-0.44089 7.42987,-1.85678 11.22363,-1.76474 1.55658,0.0378 3.1015,0.33171 4.58649,0.79985 1.51539,0.47772 3.00914,1.16182 4.12281,2.29512 0.84639,0.8613 1.43579,1.94539 1.87872,3.06879 0.65982,1.67352 1.01492,3.457 1.16703,5.24945 0.13475,1.58788 0.11343,3.19441 0.41433,4.75933 0.49503,2.57458 1.84746,4.92305 3.52848,6.93494 1.68102,2.01189 3.68982,3.72048 5.69641,5.40783 1.99908,1.68103 4.0106,3.35469 6.16708,4.82839 1.0121,0.69165 2.05642,1.33949 3.01736,2.10062 0.96094,0.76113 1.84466,1.6468 2.44543,2.71535 0.81492,1.44944 1.06377,3.2077 0.68307,4.82635 h 2e-5"
         id="path14491-6"
         inkscape:connector-curvature="0"
         sodipodi:nodetypes="aaaaaaaaaaaaaaaaaaaaaaaacscaa"
         inkscape:original-d="m 516.00562,331.8756 c 0.90859,1.59687 -1.57016,3.38773 -2.81579,4.73826 -2.74207,2.97299 -6.45099,4.90178 -9.89648,7.01985 -5.91373,3.63539 -12.61918,5.90302 -18.41964,9.71654 -3.88318,2.553 -7.32809,5.72221 -10.86016,8.74238 -3.0221,2.58411 -5.48201,5.87643 -8.83247,8.01771 -3.3519,2.1422 -7.0437,4.15414 -10.99061,4.6502 -4.78298,0.60114 -9.87221,-0.25577 -14.29898,-2.16416 -3.0947,-1.33413 -6.16113,-3.38144 -7.96301,-6.22931 -1.81288,-2.86525 -2.06093,-6.5375 -2.23266,-9.92375 -0.30734,-6.06031 1.36252,-12.0605 2.17848,-18.07349 0.67882,-5.00236 1.85312,-9.94325 2.26013,-14.97502 0.73946,-9.14185 -0.7797,-18.40771 0.3199,-27.51327 0.35468,-2.93704 -0.181,-6.65876 2.01238,-8.64398 2.0384,-1.84494 5.43058,-1.1212 8.17929,-1.06253 3.34492,0.0714 6.63224,0.95108 9.88917,1.71656 2.05612,0.48325 3.99816,1.41138 6.0722,1.81081 3.44031,0.66255 6.96573,1.06623 10.46739,0.95192 3.78516,-0.12356 7.43659,-1.79636 11.22363,-1.76474 1.55185,0.013 3.12359,0.28186 4.58649,0.79985 1.48266,0.52499 2.98786,1.20618 4.12281,2.29512 0.86547,0.83038 1.42933,1.95676 1.87872,3.06879 0.67163,1.66196 0.8942,3.4778 1.16703,5.24945 0.24238,1.57389 -0.1531,3.27141 0.41433,4.75933 1.83023,4.79924 5.57666,8.72712 9.22489,12.34277 1.74278,1.93455 4.03041,3.53404 6.16708,4.82839 2.26886,1.37444 4.3675,2.44991 5.46279,4.81597 0.65901,1.48517 -0.54371,3.76097 0.68307,4.82635 z" />
    </clipPath>
    <inkscape:path-effect
       effect="spiro"
       id="path-effect14300-2-7"
       is_visible="true" />
    <clipPath
       clipPathUnits="userSpaceOnUse"
       id="clipPath14481-1">
      <path
         style="fill:url(#linearGradient14485);fill-opacity:1;stroke:none"
         d="m 516.00562,331.8756 c -0.6714,1.71905 -1.62682,3.32679 -2.81579,4.73826 -2.6238,3.11482 -6.268,5.17039 -9.89648,7.01985 -6.1886,3.15437 -12.60169,5.92177 -18.41964,9.71654 -3.89802,2.54249 -7.4959,5.52671 -10.86016,8.74238 -2.87719,2.75012 -5.60582,5.68745 -8.83247,8.01771 -3.25567,2.35122 -7.01915,4.05426 -10.99061,4.6502 -4.83026,0.72481 -9.82134,-0.21289 -14.29898,-2.16416 -3.13754,-1.36728 -6.15569,-3.3229 -7.96301,-6.22931 -1.81425,-2.91754 -2.22807,-6.48813 -2.23266,-9.92375 -0.008,-6.07666 1.11824,-12.09004 2.17848,-18.07349 0.88097,-4.97177 1.71949,-9.95483 2.26013,-14.97502 0.98337,-9.13118 0.9763,-18.35278 0.3199,-27.51327 -0.10993,-1.53416 -0.23754,-3.0832 -0.008,-4.60412 0.22922,-1.52092 0.85475,-3.0367 2.02069,-4.03986 1.07696,-0.9266 2.52093,-1.33598 3.93947,-1.4145 1.41854,-0.0785 2.83404,0.14655 4.23982,0.35197 3.31254,0.48405 6.65159,0.8649 9.88917,1.71656 2.04284,0.53738 4.03315,1.25925 6.0722,1.81081 3.40258,0.92039 6.96639,1.36144 10.46739,0.95192 3.76917,-0.44089 7.42987,-1.85678 11.22363,-1.76474 1.55658,0.0378 3.1015,0.33171 4.58649,0.79985 1.51539,0.47772 3.00914,1.16182 4.12281,2.29512 0.84639,0.8613 1.43579,1.94539 1.87872,3.06879 0.65982,1.67352 1.01492,3.457 1.16703,5.24945 0.13475,1.58788 0.11343,3.19441 0.41433,4.75933 0.49503,2.57458 1.84746,4.92305 3.52848,6.93494 1.68102,2.01189 3.68982,3.72048 5.69641,5.40783 1.99908,1.68103 4.0106,3.35469 6.16708,4.82839 1.0121,0.69165 2.05642,1.33949 3.01736,2.10062 0.96094,0.76113 1.84466,1.6468 2.44543,2.71535 0.81492,1.44944 1.06377,3.2077 0.68307,4.82635 h 2e-5"
         id="path14483-3"
         inkscape:connector-curvature="0"
         sodipodi:nodetypes="aaaaaaaaaaaaaaaaaaaaaaaacscaa"
         inkscape:original-d="m 516.00562,331.8756 c 0.90859,1.59687 -1.57016,3.38773 -2.81579,4.73826 -2.74207,2.97299 -6.45099,4.90178 -9.89648,7.01985 -5.91373,3.63539 -12.61918,5.90302 -18.41964,9.71654 -3.88318,2.553 -7.32809,5.72221 -10.86016,8.74238 -3.0221,2.58411 -5.48201,5.87643 -8.83247,8.01771 -3.3519,2.1422 -7.0437,4.15414 -10.99061,4.6502 -4.78298,0.60114 -9.87221,-0.25577 -14.29898,-2.16416 -3.0947,-1.33413 -6.16113,-3.38144 -7.96301,-6.22931 -1.81288,-2.86525 -2.06093,-6.5375 -2.23266,-9.92375 -0.30734,-6.06031 1.36252,-12.0605 2.17848,-18.07349 0.67882,-5.00236 1.85312,-9.94325 2.26013,-14.97502 0.73946,-9.14185 -0.7797,-18.40771 0.3199,-27.51327 0.35468,-2.93704 -0.181,-6.65876 2.01238,-8.64398 2.0384,-1.84494 5.43058,-1.1212 8.17929,-1.06253 3.34492,0.0714 6.63224,0.95108 9.88917,1.71656 2.05612,0.48325 3.99816,1.41138 6.0722,1.81081 3.44031,0.66255 6.96573,1.06623 10.46739,0.95192 3.78516,-0.12356 7.43659,-1.79636 11.22363,-1.76474 1.55185,0.013 3.12359,0.28186 4.58649,0.79985 1.48266,0.52499 2.98786,1.20618 4.12281,2.29512 0.86547,0.83038 1.42933,1.95676 1.87872,3.06879 0.67163,1.66196 0.8942,3.4778 1.16703,5.24945 0.24238,1.57389 -0.1531,3.27141 0.41433,4.75933 1.83023,4.79924 5.57666,8.72712 9.22489,12.34277 1.74278,1.93455 4.03041,3.53404 6.16708,4.82839 2.26886,1.37444 4.3675,2.44991 5.46279,4.81597 0.65901,1.48517 -0.54371,3.76097 0.68307,4.82635 z" />
    </clipPath>
    <inkscape:path-effect
       effect="spiro"
       id="path-effect14300-2-2-0"
       is_visible="true" />
    <clipPath
       clipPathUnits="userSpaceOnUse"
       id="clipPath14473-5">
      <path
         style="fill:url(#linearGradient14477);fill-opacity:1;stroke:none"
         d="m 511.82669,331.89986 c -0.60617,1.40358 -1.44178,2.70776 -2.46357,3.84504 -2.32524,2.58805 -5.50706,4.22246 -8.65855,5.69652 -5.42045,2.53534 -11.00071,4.7788 -16.11556,7.88485 -3.38301,2.05437 -6.53696,4.47221 -9.50169,7.09434 -2.52461,2.23286 -4.92977,4.6271 -7.72763,6.50627 -2.88313,1.93644 -6.17534,3.29888 -9.61582,3.77358 -4.21817,0.58201 -8.55335,-0.18335 -12.51035,-1.75619 -2.7091,-1.07682 -5.36625,-2.6185 -6.96693,-5.05501 -1.53813,-2.3413 -1.9333,-5.25173 -1.95338,-8.053 -0.0354,-4.93859 0.96501,-9.81816 1.90598,-14.66641 0.78215,-4.02995 1.52682,-8.0717 1.97741,-12.15204 0.81784,-7.40607 0.66114,-14.88536 0.27989,-22.32668 -0.064,-1.24906 -0.13361,-2.5105 0.0789,-3.74301 0.21256,-1.23251 0.73646,-2.45247 1.68171,-3.27147 0.93914,-0.8137 2.20952,-1.15942 3.45104,-1.2115 1.24152,-0.0521 2.47642,0.16381 3.70512,0.34927 2.88969,0.43617 5.81087,0.7091 8.65215,1.39297 1.78651,0.43 3.53091,1.02011 5.31265,1.46945 2.98632,0.75312 6.09645,1.10709 9.15804,0.77247 3.2941,-0.36004 6.50688,-1.50957 9.81969,-1.43207 1.35838,0.0318 2.70755,0.27142 4.01277,0.64907 1.31265,0.3798 2.61744,0.9202 3.6071,1.86246 0.72535,0.69061 1.25006,1.56936 1.64371,2.49029 0.57625,1.34814 0.88626,2.79994 1.02105,4.25986 0.11897,1.28855 0.10468,2.59405 0.36251,3.86214 0.4369,2.14878 1.63966,4.08139 3.11506,5.70353 1.4754,1.62214 3.22406,2.96752 4.9559,4.31247 1.75634,1.36398 3.50975,2.7398 5.39565,3.91818 0.88228,0.55128 1.79349,1.05932 2.63473,1.67142 0.84123,0.61209 1.61878,1.33907 2.14473,2.23668 0.68386,1.16711 0.90229,2.59857 0.59763,3.91652 h 2e-5"
         id="path14475-9"
         inkscape:connector-curvature="0"
         sodipodi:nodetypes="aaaaaaaaaaaaaaaaaaaaaaaacscaa"
         inkscape:original-d="m 511.82669,331.89986 c 0.79493,1.29584 -1.37375,2.7491 -2.46357,3.84504 -2.39907,2.41255 -5.64405,3.97773 -8.65855,5.69652 -5.17399,2.95008 -11.04067,4.79023 -16.11556,7.88485 -3.39744,2.07173 -6.41144,4.64351 -9.50169,7.09434 -2.64407,2.09697 -4.79627,4.76865 -7.72763,6.50627 -2.93262,1.73837 -6.16262,3.37103 -9.61582,3.77358 -4.18468,0.48781 -8.63731,-0.20756 -12.51035,-1.75619 -2.70759,-1.08263 -5.39044,-2.744 -6.96693,-5.05501 -1.58611,-2.32511 -1.80313,-5.3051 -1.95338,-8.053 -0.2689,-4.91787 1.19208,-9.78694 1.90598,-14.66641 0.59391,-4.05935 1.62131,-8.06882 1.97741,-12.15204 0.64696,-7.4185 -0.68217,-14.93763 0.27989,-22.32668 0.31031,-2.38337 -0.15836,-5.4035 1.76065,-7.01448 1.78342,-1.49715 4.75128,-0.90984 7.15616,-0.86223 2.92651,0.0579 5.80263,0.77179 8.65215,1.39297 1.79893,0.39215 3.49804,1.14531 5.31265,1.46945 3.00996,0.53765 6.0944,0.86523 9.15804,0.77247 3.31168,-0.10027 6.50636,-1.45773 9.81969,-1.43207 1.35773,0.0105 2.73287,0.22873 4.01277,0.64907 1.2972,0.42602 2.61412,0.9788 3.6071,1.86246 0.75721,0.67384 1.25054,1.58789 1.64371,2.49029 0.58762,1.34866 0.78235,2.82219 1.02105,4.25986 0.21206,1.27719 -0.13395,2.65471 0.36251,3.86214 1.60129,3.89452 4.87908,7.08195 8.07096,10.016 1.52478,1.56986 3.52626,2.86783 5.39565,3.91818 1.98506,1.11534 3.82118,1.98807 4.77946,3.9081 0.57658,1.2052 -0.47569,3.05198 0.59763,3.91652 z" />
    </clipPath>
    <inkscape:path-effect
       is_visible="true"
       id="path-effect4582-3"
       effect="spiro" />
    <inkscape:path-effect
       is_visible="true"
       id="path-effect4500-7"
       effect="spiro" />
    <clipPath
       clipPathUnits="userSpaceOnUse"
       id="clipPath14656-7">
      <path
         sodipodi:nodetypes="aaaaassssaaaaaa"
         inkscape:connector-curvature="0"
         d="m 304.84727,225.44951 c 6.01627,4.92338 9.77707,12.317 10.94319,20.00305 1.8254,12.03148 -2.34636,24.07488 -6.44591,35.53273 -0.81749,2.28481 -1.63978,4.59033 -1.96473,6.99513 -0.32495,2.4048 -0.11897,4.94825 1.02948,7.08594 1.30279,2.42497 3.73227,4.12469 6.36677,4.92292 2.58877,0.78438 5.39365,0.76103 8.01466,0.0922 2.62101,-0.66882 5.06097,-1.96774 7.18716,-3.63996 5.48002,-4.30997 8.75799,-10.98552 10.01043,-17.84394 1.25243,-6.85841 0.63908,-13.92879 -0.551,-20.7983 -1.62313,-9.36916 -4.30898,-18.53961 -7.74003,-27.40773 -2.51766,-6.50732 -5.46794,-12.91081 -9.61753,-18.52016 -4.04611,-5.46946 -9.16208,-10.08954 -13.10336,-15.63502 -2.73209,-3.84412 -4.89983,-8.13097 -8.1917,-11.50812 -1.64594,-1.68858 -3.57654,-3.13527 -5.76975,-4.00143 -2.19321,-0.86616 -4.66356,-1.12446 -6.93254,-0.48249 -1.50468,0.42573 -2.89193,1.23739 -4.03791,2.30136 -1.14598,1.06397 -2.05268,2.37637 -2.69275,3.80312 -1.28015,2.85349 -1.47719,6.11241 -0.96512,9.1977 0.66114,3.98343 2.44407,7.69333 4.46569,11.18873 2.27396,3.93169 4.918,7.71926 8.38442,10.65407 3.5985,3.04664 7.96161,5.07413 11.61053,8.0602"
         id="path14658-9"
         inkscape:original-d="m 304.84727,225.44951 c 5.05628,5.63479 9.72833,12.47181 10.94319,20.00305 1.91724,11.88535 -4.97006,23.58228 -6.44591,35.53273 -0.57645,4.66766 -2.84839,9.7988 -0.93525,14.08107 1.10334,2.46967 3.76154,4.35176 6.36677,4.92292 5.08221,1.1142 11.95719,2.41291 15.20182,-3.54776 6.07775,-11.16533 10.5961,-26.78641 9.45943,-38.64224 -0.906,-9.44981 -3.86858,-18.61978 -7.74003,-27.40773 -2.817,-6.39442 -6.14704,-12.5833 -9.61753,-18.52016 -3.44146,-5.88721 -8.20051,-10.94245 -13.10336,-15.63502 -6.34842,-6.07614 -12.40311,-17.98386 -20.89399,-15.99204 -5.48499,1.28669 -7.45029,9.57719 -7.69578,15.30218 -0.17245,4.02188 2.46425,7.71677 4.46569,11.18873 2.26238,3.92465 5.10447,7.56255 8.38442,10.65407 3.43735,3.23988 8.4511,4.53927 11.61053,8.0602 z"
         style="fill:none;stroke:#c17d11;stroke-width:1px;stroke-linecap:butt;stroke-linejoin:miter;stroke-opacity:1" />
    </clipPath>
    <inkscape:path-effect
       is_visible="true"
       id="path-effect29707-7-6"
       effect="spiro" />
    <inkscape:path-effect
       is_visible="true"
       id="path-effect29553-7"
       effect="spiro" />
    <clipPath
       id="clipPath29644-8"
       clipPathUnits="userSpaceOnUse">
      <path
         sodipodi:nodetypes="zzzzzzz"
         inkscape:connector-curvature="0"
         inkscape:original-d="m 54.232441,122.36218 c -3.79199,4.78949 -8.5176,11.69104 -8.19273,17.25 0.32487,5.55896 3.86025,13.93486 8.37542,16 4.51517,2.06514 5.75436,0.0125 8.32902,-2.5 2.57466,-2.51247 3.85871,-7.34762 4.00585,-12.25 0.14713,-4.90238 -3.03534,-11.91949 -5.43855,-15.25 -2.40321,-3.33051 -3.28702,-8.03949 -7.07901,-3.25 z"
         id="path29646-8"
         d="m 54.232441,122.36218 c -1.780966,0.097 -3.484616,0.91899 -4.787851,2.1367 -1.303235,1.21771 -2.221372,2.81176 -2.786181,4.50357 -1.129618,3.38363 -0.875481,7.05177 -0.618698,10.60973 0.23251,3.22162 0.470404,6.50533 1.676785,9.50158 0.60319,1.49813 1.450247,2.91021 2.580338,4.06395 1.130092,1.15374 2.551736,2.04189 4.118297,2.43447 1.468838,0.36809 3.038161,0.29183 4.482784,-0.16209 1.444623,-0.45391 2.763917,-1.27887 3.846236,-2.33791 1.57904,-1.54507 2.643262,-3.5662 3.253449,-5.68947 0.610186,-2.12328 0.784157,-4.35155 0.752401,-6.56053 -0.03974,-2.76435 -0.400909,-5.53851 -1.265755,-8.16439 -0.864846,-2.62588 -2.245742,-5.10327 -4.172795,-7.08561 -0.933308,-0.96009 -1.997766,-1.80513 -3.198586,-2.39747 -1.200819,-0.59233 -2.54344,-0.92535 -3.880424,-0.85253"
         style="fill:url(#radialGradient29648);fill-opacity:1;stroke:none" />
    </clipPath>
    <linearGradient
       id="linearGradient28469-0">
      <stop
         style="stop-color:#d2940a;stop-opacity:1"
         offset="0"
         id="stop28479-4" />
      <stop
         style="stop-color:#d89c08;stop-opacity:1"
         offset="0.75143719"
         id="stop28477-2" />
      <stop
         id="stop28485-7"
         offset="0.86579126"
         style="stop-color:#b67e07;stop-opacity:1;" />
      <stop
         id="stop28473-1"
         offset="1"
         style="stop-color:#946106;stop-opacity:1" />
    </linearGradient>
    <inkscape:path-effect
       is_visible="true"
       id="path-effect28463-4"
       effect="spiro" />
    <inkscape:path-effect
       is_visible="true"
       id="path-effect28489-4"
       effect="spiro" />
    <inkscape:path-effect
       is_visible="true"
       id="path-effect28273-54-7"
       effect="spiro" />
    <linearGradient
       id="linearGradient28275-8">
      <stop
         id="stop28277-1"
         offset="0"
         style="stop-color:#ad780a;stop-opacity:1" />
      <stop
         style="stop-color:#d89e08;stop-opacity:1"
         offset="0.11972899"
         id="stop28291-9" />
      <stop
         style="stop-color:#edb80b;stop-opacity:1"
         offset="0.25514477"
         id="stop28289-6" />
      <stop
         style="stop-color:#ebc80d;stop-opacity:1"
         offset="0.39194193"
         id="stop28287-6" />
      <stop
         style="stop-color:#f5d838;stop-opacity:1"
         offset="0.52741116"
         id="stop28285-7" />
      <stop
         style="stop-color:#f6d811;stop-opacity:1"
         offset="0.76906693"
         id="stop28283-7" />
      <stop
         id="stop28279-5"
         offset="1"
         style="stop-color:#f5cd31;stop-opacity:1" />
    </linearGradient>
    <inkscape:path-effect
       is_visible="true"
       id="path-effect28273-44"
       effect="spiro" />
    <inkscape:path-effect
       is_visible="true"
       id="path-effect28384-7"
       effect="spiro" />
    <linearGradient
       id="linearGradient29529-6">
      <stop
         id="stop29531-0"
         offset="0"
         style="stop-color:#3a2903;stop-opacity:1;" />
      <stop
         style="stop-color:#735208;stop-opacity:1"
         offset="0.55472803"
         id="stop29539-7" />
      <stop
         id="stop29533-8"
         offset="1"
         style="stop-color:#ac8c04;stop-opacity:1" />
    </linearGradient>
    <inkscape:path-effect
       is_visible="true"
       id="path-effect29455-3"
       effect="spiro" />
    <linearGradient
       id="linearGradient29477-3">
      <stop
         id="stop29479-5"
         offset="0"
         style="stop-color:#757574;stop-opacity:0" />
      <stop
         style="stop-color:#757574;stop-opacity:1;"
         offset="0.26291031"
         id="stop29487-5" />
      <stop
         style="stop-color:#757574;stop-opacity:1;"
         offset="0.5"
         id="stop29485-0" />
      <stop
         id="stop29481-3"
         offset="1"
         style="stop-color:#757574;stop-opacity:0" />
    </linearGradient>
    <linearGradient
       id="linearGradient29336-6">
      <stop
         id="stop29338-1"
         offset="0"
         style="stop-color:#646464;stop-opacity:0" />
      <stop
         style="stop-color:#646464;stop-opacity:0.5825243"
         offset="0.30628255"
         id="stop29344-7" />
      <stop
         id="stop29354-5"
         offset="0.47000006"
         style="stop-color:#646464;stop-opacity:1" />
      <stop
         style="stop-color:#646464;stop-opacity:0.25728154"
         offset="0.72834015"
         id="stop29356-3" />
      <stop
         id="stop29340-6"
         offset="1"
         style="stop-color:#646464;stop-opacity:0;" />
    </linearGradient>
    <linearGradient
       id="linearGradient28976-3">
      <stop
         id="stop28978-7"
         offset="0"
         style="stop-color:#747474;stop-opacity:1" />
      <stop
         style="stop-color:#8c8c8c;stop-opacity:1;"
         offset="0.125"
         id="stop29259-5" />
      <stop
         style="stop-color:#a4a4a4;stop-opacity:1;"
         offset="0.25"
         id="stop29257-0" />
      <stop
         style="stop-color:#d4d4d4;stop-opacity:1"
         offset="0.5"
         id="stop28984-4" />
      <stop
         id="stop28986-0"
         offset="0.61919296"
         style="stop-color:#d4d4d4;stop-opacity:1" />
      <stop
         id="stop28980-2"
         offset="1"
         style="stop-color:#7c7c7c;stop-opacity:1" />
    </linearGradient>
    <inkscape:path-effect
       is_visible="true"
       id="path-effect28974-8"
       effect="spiro" />
    <clipPath
       id="clipPath29028-5"
       clipPathUnits="userSpaceOnUse">
      <path
         sodipodi:nodetypes="aaaaaaaa"
         inkscape:connector-curvature="0"
         inkscape:original-d="m 85.75,122.36218 c -2.54738,2.12715 -5.20812,4.59907 -6.25,7.75 -1.30914,3.95917 -1.63336,8.91703 0.5,12.5 3.91901,6.58194 12.38353,13.85135 19.75,11.75 4.87452,-1.3905 6.10748,-8.51023 7,-13.5 0.59149,-3.30679 0.59578,-7.19325 -1.25,-10 -3.61233,-5.49303 -10.4265,-9.89357 -17,-10 -1.04403,-0.0169 -1.94852,0.83074 -2.75,1.5 z"
         id="path29030-7"
         d="m 85.75,122.36218 c -2.780425,1.91023 -5.110569,4.57487 -6.25,7.75 -1.436029,4.00163 -0.885838,8.48071 0.5,12.5 1.419488,4.11688 3.793788,8.04098 7.37932,10.51234 1.792766,1.23567 3.868091,2.08301 6.030402,2.33859 2.162311,0.25558 4.409274,-0.0949 6.340278,-1.10093 2.35312,-1.22596 4.14782,-3.37278 5.26217,-5.78076 1.11436,-2.40798 1.5888,-5.0701 1.73783,-7.71924 0.18989,-3.37546 -0.14047,-6.80646 -1.25,-10 -1.20527,-3.46909 -3.39005,-6.67055 -6.472754,-8.6666 -1.541351,-0.99803 -3.291947,-1.68356 -5.110883,-1.93515 -1.818936,-0.25158 -3.704766,-0.0633 -5.416363,0.60175 -0.975471,0.37901 -1.887438,0.9074 -2.75,1.5"
         style="fill:url(#radialGradient29032);fill-opacity:1;stroke:none" />
    </clipPath>
    <inkscape:path-effect
       is_visible="true"
       id="path-effect28881-6"
       effect="spiro" />
    <linearGradient
       id="linearGradient28935-8">
      <stop
         id="stop28937-7"
         offset="0"
         style="stop-color:#949494;stop-opacity:0.39215687;" />
      <stop
         style="stop-color:#949494;stop-opacity:1;"
         offset="0.5"
         id="stop28943-3" />
      <stop
         id="stop28939-8"
         offset="1"
         style="stop-color:#949494;stop-opacity:0.39215687;" />
    </linearGradient>
    <linearGradient
       id="linearGradient28853-5">
      <stop
         id="stop28855-3"
         offset="0"
         style="stop-color:#020204;stop-opacity:1" />
      <stop
         style="stop-color:#020204;stop-opacity:1"
         offset="0.73448181"
         id="stop28865-0" />
      <stop
         id="stop28857-9"
         offset="1"
         style="stop-color:#5c5c5c;stop-opacity:1;" />
    </linearGradient>
    <inkscape:path-effect
       is_visible="true"
       id="path-effect28851-0"
       effect="spiro" />
    <inkscape:path-effect
       is_visible="true"
       id="path-effect28273-4-2"
       effect="spiro" />
    <linearGradient
       id="linearGradient28799-3">
      <stop
         id="stop28801-6"
         offset="0"
         style="stop-color:#fefefc;stop-opacity:1;" />
      <stop
         style="stop-color:#fefefc;stop-opacity:1"
         offset="0.75733864"
         id="stop28807-7" />
      <stop
         id="stop28803-0"
         offset="1"
         style="stop-color:#d4d4d4;stop-opacity:1" />
    </linearGradient>
    <inkscape:path-effect
       is_visible="true"
       id="path-effect28797-81"
       effect="spiro" />
    <linearGradient
       id="linearGradient28799-5-5">
      <stop
         id="stop28801-1-9"
         offset="0"
         style="stop-color:#fefefc;stop-opacity:1;" />
      <stop
         style="stop-color:#fefefc;stop-opacity:1"
         offset="0.75733864"
         id="stop28807-2-6" />
      <stop
         id="stop28803-6-3"
         offset="1"
         style="stop-color:#d4d4d4;stop-opacity:1" />
    </linearGradient>
    <inkscape:path-effect
       is_visible="true"
       id="path-effect28797-8-1"
       effect="spiro" />
    <inkscape:path-effect
       is_visible="true"
       id="path-effect28463-0-7"
       effect="spiro" />
    <inkscape:path-effect
       is_visible="true"
       id="path-effect28463-8-0"
       effect="spiro" />
    <inkscape:path-effect
       is_visible="true"
       id="path-effect29721-2"
       effect="spiro" />
    <inkscape:path-effect
       is_visible="true"
       id="path-effect28714-5"
       effect="spiro" />
    <inkscape:path-effect
       is_visible="true"
       id="path-effect29678-4-6"
       effect="spiro" />
    <inkscape:path-effect
       is_visible="true"
       id="path-effect29678-1"
       effect="spiro" />
    <inkscape:path-effect
       is_visible="true"
       id="path-effect29672-0"
       effect="spiro" />
  </defs>
  <metadata
     id="metadata27455">
    <rdf:RDF>
      <cc:Work
         rdf:about="">
        <dc:format>image/svg+xml</dc:format>
        <dc:type
           rdf:resource="http://purl.org/dc/dcmitype/StillImage" />
        <dc:title>Tux</dc:title>
        <dc:date>20 June 2012</dc:date>
        <dc:creator>
          <cc:Agent>
            <dc:title>Garrett LeSage</dc:title>
          </cc:Agent>
        </dc:creator>
        <cc:license
           rdf:resource="http://creativecommons.org/publicdomain/zero/1.0/" />
        <dc:contributor>
          <cc:Agent>
            <dc:title>Larry Ewing, the creator of the original Tux graphic</dc:title>
          </cc:Agent>
        </dc:contributor>
        <dc:subject>
          <rdf:Bag>
            <rdf:li>tux</rdf:li>
            <rdf:li>Linux</rdf:li>
            <rdf:li>penguin</rdf:li>
            <rdf:li>logo</rdf:li>
          </rdf:Bag>
        </dc:subject>
        <dc:rights>
          <cc:Agent>
            <dc:title>Larry Ewing, Garrett LeSage</dc:title>
          </cc:Agent>
        </dc:rights>
        <dc:source>https://github.com/garrett/Tux</dc:source>
      </cc:Work>
      <cc:License
         rdf:about="http://creativecommons.org/publicdomain/zero/1.0/">
        <cc:permits
           rdf:resource="http://creativecommons.org/ns#Reproduction" />
        <cc:permits
           rdf:resource="http://creativecommons.org/ns#Distribution" />
        <cc:permits
           rdf:resource="http://creativecommons.org/ns#DerivativeWorks" />
      </cc:License>
    </rdf:RDF>
  </metadata>
  <g
     transform="translate(160,312.63782)"
     id="layer1"
     inkscape:groupmode="layer"
     inkscape:label="Layer 1">
    <g
       id="g4472"
       transform="matrix(0.32847095,0,0,0.32847095,182.2226,-19.869582)">
      <rect
         style="fill:#fffff5;fill-opacity:1;stroke:none;stroke-width:1.60627759;stroke-linecap:round;stroke-linejoin:round;stroke-miterlimit:4;stroke-dasharray:none;stroke-opacity:1"
         id="rect990"
         width="1643.9811"
         height="2131.0867"
         x="-1041.8657"
         y="-891.30634" />
      <g
         id="g1239"
         transform="matrix(0.71021274,0,0,0.71021274,-274.52939,225.00627)">
        <path
           sodipodi:nodetypes="csssscccccccccccccccccccccccccccccccccccccccccccccccccsccsszscscccccc"
           inkscape:connector-curvature="0"
           id="path4734"
           style="fill:#00000f;fill-opacity:1;fill-rule:evenodd;stroke:none;stroke-width:0.9536317"
           d="m -159.09103,-887.67578 c -18.45802,36.48473 -30.60844,81.34168 -31.66639,136.3664 -4.4857,233.39572 10.14997,197.29861 1.12089,304.39621 -4.15087,49.23228 -9.67507,67.51083 -34.72669,126.8919 -27.25822,64.61179 -56.48437,101.39683 -97.04032,158.00485 -50.30627,70.217573 -119.64626,166.4165246 -157.60719,243.525784 -21.70027,43.755146 -39.81384,110.465056 -46.5626,154.734876 -4.51239,29.59185 -5.03632,67.85421 -4.02566,103.71272 -26.75432,23.24278 -40.49587,62.39003 -67.98698,92.23432 -17.7323,19.205 -52.0063,25.4426 -89.99317,32.80038 -32.59132,6.23758 -67.0756,18.9239 -79.13036,38.33887 -1.34596,2.16606 -2.56222,4.41185 -3.67873,6.71961 -27.44838,52.8476 6.14549,143.54988 -10.23857,210.64725 -6.93853,28.52649 -18.78378,55.37034 -18.99549,79.97145 -0.0734,12.6867 2.80327,26.14298 11.63584,41.42255 9.67135,16.82197 30.9093,28.80606 61.11787,39.24976 28.17619,9.74269 64.76323,18.2939 107.30684,28.31667 l 14.71892,3.43421 c 19.13405,4.55655 38.19782,9.11177 57.47291,12.9673 12.54559,2.5933 19.83601,3.8542 26.07124,4.97653 27.12405,4.83605 37.42737,6.72825 109.75948,34.97368 17.45261,6.79929 36.79664,14.0879 57.26253,20.32532 40.44124,12.54607 86.13936,21.65804 128.33452,14.01864 21.37794,-3.85407 41.5628,-11.98569 59.5049,-26.00255 18.5735,-14.5075 36.44666,-34.06315 49.13282,-53.89755 3.39121,-5.28998 6.5278,-10.76516 9.27283,-16.39989 2.4063,-4.755 4.54253,-9.627 6.32554,-14.59991 1.7008,-4.5328 3.117513,-9.23573 4.150773,-13.9564 17.018511,-8.48637 59.130602,-21.29107 159.398683,-22.2611 151.112104,-1.4726 251.759824,53.05797 251.759824,53.05797 l 0.0734,-1.12033 c 1.2608,7.14948 2.80301,13.80659 4.76692,20.18486 2.87377,9.32165 6.72825,17.87287 11.91439,26.14324 5.25727,8.20057 11.77525,15.98048 20.04638,23.62098 8.97082,8.27047 19.7644,15.91097 32.10087,22.42932 11.49517,6.02796 24.39123,11.07346 38.54894,14.78886 12.89606,3.3649 26.84397,5.6078 41.63213,6.3085 13.8082,0.7008 28.24552,0.072 43.31567,-2.1025 25.44175,-3.6444 45.06701,-11.7046 61.95774,-22.14832 16.47103,-10.16248 29.92849,-22.35828 43.66593,-34.8335 l 0.42132,-0.35017 v 0 c 9.04157,-8.20105 18.22314,-16.54094 28.3858,-24.18144 6.79787,-5.1168 13.03681,-9.88343 18.99463,-14.50788 8.83158,-6.79901 13.73811,-10.65359 18.71435,-14.57893 14.9292,-11.70459 30.34695,-23.90011 45.76736,-35.39519 15.98106,-11.84534 32.94188,-23.90039 51.37615,-35.6746 13.94753,-8.9711 29.64727,-19.13387 44.71675,-29.01566 15.56059,-10.23369 31.81982,-20.95679 47.16919,-31.47002 27.41577,-18.62125 65.2535,-41.7011 79.58706,-71.68021 4.78704,-9.27389 7.35755,-19.21461 6.66274,-29.90001 -2.24237,-34.27289 -42.82494,-65.18248 -78.70914,-95.88234 -17.45299,-14.99864 -35.04492,-29.85724 -44.22591,-45.06724 -7.42918,-12.26494 -16.4018,-30.76899 -18.92368,-44.22576 -7.08348,-37.31696 -6.93214,-65.19505 -24.60112,-89.84553 -16.2148,-22.62228 -30.38786,-29.1298 -55.38016,-31.95336 -3.74616,-0.42315 -7.26811,-0.94881 -10.68201,-1.50364 16.23634,-59.77363 21.63494,-97.85997 16.8952,-147.79548 -16.60432,-174.933047 -128.6199,-303.019105 -189.5337,-389.73569 -39.7632,-56.6067 -85.8382,-114.87164 -105.71675,-153.66871 -19.87884,-38.79712 -34.67987,-92.76942 -44.36772,-124.03297 -9.54223,-30.79416 -14.58436,-104.04272 -15.84154,-222.8417 4.48465,-182.02192 -51.8665,-266.05742 -120.0628,-318.48435 -68.19716,-52.4267 -168.284626,-51.5856 -204.380063,-48.432 v 0 0 -9e-4 c -30.261787,2.6385 -157.563325,33.1753 -216.978017,152.98324 z" />
        <path
           inkscape:connector-curvature="0"
           id="path4736"
           style="fill:#fcc624;fill-rule:evenodd;stroke:none;stroke-width:0.9536317"
           d="m -612.68453,466.03919 c -35.86161,17.23004 -118.44097,16.87962 -138.47419,51.2012 -21.99247,37.75177 -7.77372,79.568 -7.56411,127.75791 0.0734,34.10984 -0.49065,72.0744 -14.84767,112.48825 -11.76829,33.27104 -15.76038,45.03733 1.1189,74.31563 16.87995,29.3483 90.14394,43.42696 189.25374,67.10182 99.18037,23.60515 67.59094,6.1637 178.60912,49.51952 68.78088,26.89537 165.85944,59.88678 228.75785,10.78691 23.18469,-18.1417 61.21648,-59.18515 63.52894,-99.1798 1.33089,-22.83433 -0.7712,-47.20912 -6.23351,-61.98799 -18.1416,-49.31289 -54.42348,-70.39457 -88.88296,-121.94588 -63.10934,-95.74875 -130.13974,-186.52325 -183.72259,-266.23168 -37.82284,-56.38388 -68.22128,-70.04284 -93.92738,-65.56017 -79.00791,13.938 -53.5118,86.15136 -127.61729,121.73428 v 0 0 0 z" />
        <path
           inkscape:connector-curvature="0"
           id="path4738"
           style="fill:#fcc624;fill-rule:evenodd;stroke:none;stroke-width:0.9536317"
           d="m 392.26154,384.52072 c -34.80079,24.58571 -27.26328,98.27463 -29.3052,137.09056 -3.09959,59.38766 -3.52376,125.60788 -5.56482,151.95483 -3.38272,43.60622 -36.42196,142.09219 -32.40507,188.5874 3.94507,46.42537 7.3257,73.6176 36.20891,100.24691 28.95303,26.62893 79.88764,46.49468 142.79682,37.40678 62.90975,-9.0884 86.71907,-48.18654 127.50952,-78.75959 40.71769,-30.57419 82.63543,-66.85464 136.45669,-101.3741 53.82059,-34.58959 140.47253,-91.22992 152.94107,-106.51635 12.46893,-15.35751 20.92278,-28.60056 11.9059,-48.74938 -8.94687,-20.14874 -40.3658,-51.28624 -74.6746,-79.6063 -89.46716,-73.96969 -50.84221,-142.72826 -88.1994,-179.07714 -11.39657,-12.27964 -19.86625,-19.04702 -33.09398,-21.74042 -71.40365,-14.54179 -91.01976,13.50387 -132.94637,9.38331 -45.2071,-4.44197 -28.21186,5.49669 -121.01386,-6.88691 -31.94485,-3.62867 -68.56364,-16.27776 -90.61561,-1.96258 v 0 z" />
        <path
           inkscape:connector-curvature="0"
           id="path4740"
           style="fill:#f5f5f5;fill-rule:evenodd;stroke:none;stroke-width:0.9536317"
           d="m -191.13325,-179.85062 c -31.89707,69.75156 -30.33293,46.05108 -51.76857,118.959004 -29.76923,27.012552 -62.40566,99.588809 -83.89193,162.060346 -27.43961,90.79387 -48.05532,184.14714 -22.4298,292.7392 10.16419,11.03951 18.41568,21.47905 27.67353,30.24765 14.70491,13.92753 30.53806,25.21846 49.88009,39.92042 68.45111,52.02272 116.42375,79.49196 125.86337,113.32361 12.56533,45.03417 -15.60046,74.81597 -50.72062,93.12784 25.67863,25.692 107.651573,78.32748 257.129339,71.74935 131.641801,-5.79264 214.193031,-55.6143 284.661931,-141.57487 0.45078,-19.78056 2.61572,-52.88229 3.59576,-88.61261 0.93552,-34.12294 1.13206,-68.29519 6.35481,-94.79715 1.22876,-6.23718 3.58137,-12.14264 5.68718,-17.33682 8.59727,-21.20754 31.73686,-35.65486 53.87914,-36.69618 11.64136,-0.54772 23.86091,-1.39002 35.54367,1.03366 17.86161,-139.57561 3.71811,-235.94636 -66.82184,-383.766133 -5.46469,-10.366978 -31.59897,-54.335392 -47.20028,-66.744841 -12.19219,-59.648406 -13.79991,-56.721876 -38.19086,-111.327226 -36.9928,-82.81192 -50.39867,-178.5317 -61.67756,-234.78152 -7.70506,3.99252 -21.1547,9.59708 -41.68067,25.49924 -14.91937,11.62886 -42.51948,35.79522 -63.67446,50.43539 -13.81364,9.56318 -28.93166,17.83203 -43.805267,24.30677 -21.404646,9.32099 -42.300147,14.92869 -58.04804,15.34207 -56.452137,2.98514 -83.305548,-10.99629 -109.044545,-37.8192 -10.795492,-11.25091 -18.973456,-23.57708 -32.592078,-38.61683 -6.03411,-6.66284 -14.38296,-15.51488 -22.89508,-21.59775 -0.23192,7.39261 -23.9311,165.17509 -55.82722,234.92658 z m 424.6255,-265.29608 c 0.14038,-0.14066 0.21056,-0.35023 0.35027,-0.49063 -0.14037,0.14037 -0.21056,0.35018 -0.35027,0.49063 z M 62.218756,-596.45605 c -1.750296,-15.5519 -2.241511,-43.99161 8.546924,-79.78675 16.671199,-54.92006 76.91583,-91.69494 127.91215,-65.77758 50.99746,25.91891 60.41858,93.20983 48.19445,131.13393 -7.51281,23.30863 -25.34324,50.57578 -38.80871,67.66887 -10.43731,-4.27319 -23.32726,-8.96612 -39.36735,-14.49978 9.24622,-5.3239 17.51211,-13.73 23.60725,-24.86828 16.88176,-30.75219 10.85748,-70.75125 -13.31013,-89.38389 -24.23683,-18.63423 -57.5119,-8.75637 -74.32434,21.99579 -11.767334,21.43581 -12.398352,47.42404 -3.50145,67.45906 -14.360735,-5.53369 -26.898608,-10.29754 -38.948794,-13.93979 v 0 0 -9.5e-4 z M -124.81474,-728.43077 c 47.774847,-16.67188 76.354617,23.32718 87.983488,80.55663 3.503262,17.58365 3.782771,35.16577 1.681253,51.27768 -1.330888,0.4196 -2.660728,0.98112 -4.063711,1.5412 -5.604589,2.17209 -11.628966,4.90418 -18.281501,8.33674 1.049662,-3.71326 1.821055,-7.70577 2.310459,-11.9081 3.782866,-32.01253 -11.347741,-65.1466 -33.834663,-73.90288 -22.486155,-8.75637 -43.782095,10.15708 -47.564575,42.16958 -3.64182,30.75218 10.15713,62.4854 31.10241,72.71198 -2.66263,1.82186 -5.3945,3.71328 -8.12551,5.67405 -3.50326,2.38191 -7.0051,4.97361 -10.4375,7.63474 -16.6033,-16.04246 -27.73924,-41.89033 -34.04437,-69.0696 -11.41888,-49.31544 0.90958,-103.7449 33.27317,-115.02202 v 0 0 0 z" />
        <path
           inkscape:connector-curvature="0"
           id="path4742"
           style="fill:#e09d00;fill-rule:evenodd;stroke:none;stroke-width:0.9536317"
           d="m 359.85914,607.02198 c 1.63252,33.95735 6.65291,70.86978 4.66764,103.03479 -4.48483,72.66596 -2.59273,169.29425 21.96061,200.14023 45.07589,56.62598 105.04111,54.70203 183.12409,27.07494 40.95114,-14.48948 68.86146,-31.82221 121.02397,-63.43472 2.53666,-1.53707 5.04977,-3.0645 7.53846,-4.58087 -23.58665,18.11614 -45.29503,35.74021 -66.67116,51.79174 -40.7915,30.57276 -64.60082,69.67109 -127.51057,78.7593 -62.90918,9.08821 -113.84379,-10.77785 -142.79586,-37.40678 -28.88417,-26.62883 -32.2648,-53.82126 -36.20987,-100.24662 -1.5139,-17.52022 2.23455,-42.42326 7.67511,-68.9903 8.99732,-43.93561 22.62234,-92.42301 24.72996,-119.5971 1.05786,-13.64675 1.68106,-37.99282 2.46762,-66.54461 z" />
        <path
           inkscape:connector-curvature="0"
           id="path4744"
           style="fill:#e09d00;fill-rule:evenodd;stroke:none;stroke-width:0.9536317"
           d="m -780.94427,779.77269 c 3.61227,15.37132 13.52717,44.16422 38.81034,58.42397 35.47653,20.00843 148.70179,40.12234 264.73188,60.87174 116.03095,20.74969 157.15479,60.95233 240.87364,40.20292 161.899393,-40.12748 76.44779,-194.37724 86.6548,-190.6388 l 3.01109,1.10413 c 11.41278,14.12909 21.25044,29.06953 28.32706,48.30639 5.46297,14.77867 7.56545,39.15345 6.23351,61.98778 -2.31151,39.99493 -40.34425,81.03839 -63.52894,99.17961 -62.89726,49.10007 -159.97611,16.10865 -228.75661,-10.78691 -111.01942,-43.35563 -79.42999,-25.91437 -178.6094,-49.51952 -99.11009,-23.67467 -172.3738,-37.75304 -189.25375,-67.10154 -12.48809,-21.66127 -13.55034,-33.73877 -8.49362,-52.02977 z m 614.05215,194.93168 -0.60642,0.87934 -0.72256,0.13637 c 0.44439,-0.33491 0.88735,-0.67393 1.32898,-1.01581 z" />
        <path
           inkscape:connector-curvature="0"
           id="path4746"
           style="fill:#e09d00;fill-rule:evenodd;stroke:none;stroke-width:0.9536317"
           d="m 411.55141,378.24397 c -8.02452,197.74105 77.4862,236.22394 171.56464,150.15588 20.99315,-19.20531 42.44415,-59.88983 63.3406,-89.19939 3.52548,-4.94422 6.64863,-10.57048 9.41139,-16.52916 -9.12826,15.02955 -19.81389,30.52026 -32.64987,44.92071 -41.09971,46.10939 -110.7237,76.67786 -156.698,55.26246 -39.85494,-18.56491 -54.6636,-96.54748 -53.08267,-144.7804 -0.63407,0.0482 -1.2627,0.10495 -1.88609,0.16995 z" />
        <path
           inkscape:connector-curvature="0"
           id="path4748"
           style="fill:#fcc624;fill-rule:evenodd;stroke:none;stroke-width:0.9536317"
           d="m 233.49225,-445.14642 c 0.14038,-0.14067 0.21056,-0.35027 0.35027,-0.4906 -0.14037,0.14036 -0.21056,0.35014 -0.35027,0.4906 z m -373.81266,10.06855 c 0.80763,0.85451 0.50628,2.36757 1.40536,3.26276 10.56948,10.52709 22.7939,20.84589 33.45207,32.91953 12.25407,13.88276 23.484991,29.41115 33.915242,38.92615 19.178202,17.49605 37.398099,26.84616 64.015009,30.13121 51.404755,6.34484 89.838497,-7.90936 133.187929,-36.49917 20.39751,-13.45723 48.64237,-38.26839 64.9734,-50.53437 27.19386,-20.4669 34.97369,-18.85489 43.03397,-29.15648 8.34094,-10.72305 12.40561,-38.75851 9.95296,-52.0056 -1.96229,-10.23357 -5.5365,-17.03121 -16.61112,-24.04062 -12.33675,-7.77947 -33.5728,-15.9796 -70.37011,-28.4554 l -0.0734,-0.0695 h -0.0706 l -0.0734,-0.0692 h -0.14047 l -0.0734,-0.0699 h -0.0734 -0.0734 l -0.14038,-0.0692 h -0.0734 l -0.0734,-0.0699 h -0.14037 v 0 l -0.0734,-0.0689 h -0.0734 -0.0734 l -0.13732,-0.0699 h -0.0734 l -0.0734,-0.0695 h -0.14038 l -0.0734,-0.0699 h -0.0734 l -0.0734,-0.0689 h -0.13732 v 0 h -0.0734 l -0.0734,-0.0695 h -0.0734 l -0.13732,-0.0699 h -0.0734 l -0.0734,-0.0689 h -0.0734 -0.13732 l -0.0734,-0.0695 h -0.0706 l -0.14038,-0.0699 v 0 h -0.0734 l -0.0734,-0.069 h -0.0734 l -0.14047,-0.0692 h -0.0734 -0.0734 l -0.0734,-0.0698 h -0.14028 l -0.0734,-0.0692 h -0.0734 l -0.0734,-0.0695 h -0.0734 -0.0734 -0.0734 l -0.0734,-0.0695 h -0.0734 l -0.14028,-0.0695 h -0.0734 l -0.0734,-0.0692 h -0.0734 -0.13732 l -0.0734,-0.0699 h -0.0734 l -0.0734,-0.0692 h -0.0734 -0.0734 l -0.0734,-0.0695 h -0.0734 -0.0734 l -0.14037,-0.0692 h -0.0734 l -0.0734,-0.0695 h -0.0734 l -0.35037,-0.14006 -0.9111,-0.35098 h -0.13732 l -0.63226,-0.20932 -0.20751,-0.0699 -0.49131,-0.21024 -0.49121,-0.14037 -0.14038,-0.0689 -0.70025,-0.21054 -0.14037,-0.0689 -0.91082,-0.35051 -0.2076,-0.0692 -0.7015,-0.20963 -0.0734,-0.0692 -0.91091,-0.27981 -0.28075,-0.14036 -0.70121,-0.20963 v 0 l -0.90986,-0.35015 -0.91024,-0.35094 h -0.0734 l -0.6313,-0.20932 -0.27761,-0.0699 -0.42141,-0.21023 -0.49131,-0.14006 -0.14028,-0.0692 -0.63197,-0.20963 -0.14047,-0.0699 -0.91043,-0.35024 -0.20751,-0.0692 -0.6313,-0.21025 h -0.0734 l -0.49074,-0.20962 -0.41989,-0.14037 -0.20751,-0.0699 -0.63159,-0.2789 v 0 l -0.91024,-0.28103 -0.35122,-0.14067 -0.56055,-0.20963 h -0.0734 l -0.56054,-0.28072 -0.20751,-0.0692 -0.91148,-0.28163 -0.14028,-0.0695 -0.5615,-0.20932 -0.13732,-0.0699 -0.49036,-0.14036 -0.42198,-0.14037 -0.14038,-0.0692 -0.63102,-0.28072 h -0.0734 l -0.49122,-0.21024 -0.35027,-0.14067 -0.2777,-0.0689 -0.56054,-0.21023 h -0.0734 l -0.84158,-0.35016 -0.84034,-0.28103 -0.0734,-0.0695 -0.56036,-0.21024 -0.21046,-0.0689 -0.35027,-0.14005 -0.49007,-0.14067 -0.0734,-0.0699 -0.63131,-0.20933 -0.14047,-0.0692 -0.4195,-0.14067 -0.42198,-0.14067 -0.13732,-0.0689 -0.56055,-0.21025 -0.13732,-0.0695 -0.42017,-0.14067 -0.35037,-0.14006 -0.28065,-0.0695 -0.56054,-0.28073 v 0 l -0.56055,-0.21054 -0.28075,-0.0692 -0.77225,-0.35017 h -0.0734 l -0.56026,-0.21025 -0.21046,-0.0689 -0.35027,-0.14036 -0.42017,-0.14098 -0.0734,-0.0695 -0.56036,-0.20901 -0.20741,-0.0699 -0.77235,-0.28072 -0.14037,-0.0699 -0.55931,-0.21024 h -0.0734 l -0.49007,-0.20963 -0.28075,-0.14067 -0.20751,-0.0695 -0.55959,-0.20963 h -0.0734 l -0.14037,-0.0699 -0.14038,-0.0692 -0.21056,-0.069 -0.13732,-0.0695 h -0.14028 v -0.0699 h -0.21066 l -0.14028,-0.0695 -0.20751,-0.0692 -0.14037,-0.0695 -0.0734,-0.0699 -0.28075,-0.0692 -0.14038,-0.0689 -0.20741,-0.0699 -0.14047,-0.0699 v 0 l -0.21056,-0.0692 -0.14038,-0.0689 -0.13723,-0.0699 -0.21065,-0.0695 h -0.0734 l -0.0734,-0.0692 h -0.20751 l -0.14028,-0.0689 -0.14047,-0.0699 -0.21047,-0.0692 v 0 l -0.13732,-0.0689 -0.21056,-0.0692 -0.14028,-0.0699 -0.28075,-0.0692 -0.0734,-0.069 -0.14038,-0.0699 -0.21046,-0.0695 -0.14047,-0.0695 -0.14028,-0.0689 h -0.0706 -0.14037 l -0.14038,-0.0702 -0.14028,-0.0695 -0.21056,-0.0692 -0.0734,-0.0689 h -0.0734 l -0.14028,-0.0699 -0.21066,-0.0695 -0.13722,-0.0692 -0.20751,-0.0689 v 0 l -0.14047,-0.0699 -0.14028,-0.0695 h -0.20751 l -0.14038,-0.0695 -0.14037,-0.0692 v 0 l -0.21056,-0.0695 -0.14028,-0.0692 -0.14047,-0.0689 -0.21047,-0.0699 v 0 l -0.14037,-0.0695 -0.14038,-0.0689 -0.21056,-0.0702 -0.14028,-0.0695 h -0.13732 v 0 l -0.21056,-0.0689 -0.14038,-0.0699 -0.14037,-0.0689 -0.14038,-0.0692 h -0.0734 l -0.13732,-0.0698 -0.14038,-0.0692 -0.14037,-0.0689 -0.20742,-0.0699 h -0.14047 c -37.356801,-14.50804 -61.60737,-23.90062 -95.6702367,-22.77954 -11.8454411,0.3501 -23.9008723,1.68246 -40.8622613,8.41033 l -0.841675,0.35052 v 0 l -0.841485,0.2798 v 0.0692 l -0.700347,0.28102 h -0.140374 v 0.0689 h -0.07343 l -0.772251,0.28164 v 0.0689 l -0.630732,0.20932 -0.420552,0.21055 -0.489976,0.20963 -0.140374,0.0692 h -0.07343 l -0.699393,0.28103 -0.14028,0.0695 -0.07057,0.0692 v 0 l -0.770725,0.35014 v 0 h -0.07343 l -0.701492,0.35051 h -0.137323 l -0.07343,0.0692 -0.491311,0.21024 -0.140279,0.0699 -0.28075,0.13976 -0.700633,0.35097 h -0.07343 l -0.140469,0.0692 -0.491216,0.20962 -0.277698,0.14068 -0.137323,0.0695 -0.491215,0.20963 -0.140375,0.0695 -0.280749,0.14037 v 0 l -0.491311,0.21024 -0.280749,0.14066 -0.210467,0.14037 -0.489785,0.20932 h -0.07343 l -0.350364,0.21024 -0.491216,0.20994 -0.491216,0.27951 -0.490071,0.20963 v 0 l -0.491216,0.28011 -0.490452,0.20903 -0.07343,0.0699 -0.350364,0.14036 -0.07343,0.0698 -0.491216,0.20933 v 0 l -0.490071,0.28133 -0.491311,0.20933 -0.419503,0.28133 h -0.07343 l -0.491311,0.28073 h -0.07343 l -0.350269,0.21024 h -0.07343 l -0.560544,0.28072 -0.419503,0.28105 h -0.07343 l -0.490357,0.28072 -0.491311,0.28103 -0.560259,0.2792 -0.491311,0.21024 v 0.0692 l -0.560544,0.28073 v 0 l -0.490358,0.21024 v 0.0689 l -0.560258,0.28103 -0.419503,0.20963 -0.07343,0.0702 -0.560449,0.2789 -0.489976,0.28103 v 0 l -0.56064,0.28042 -0.560545,0.35052 v 0 c -1.051474,0.56075 -2.173136,1.19163 -3.293939,1.8232 l -0.560545,0.34981 -0.560259,0.28164 v 0 l -0.349982,0.20963 -0.631591,0.42145 -0.350364,0.20964 h -0.07343 l -0.07343,0.0689 -0.559877,0.28103 -0.350269,0.21054 -0.28075,0.20934 -0.701586,0.42039 -0.349983,0.20931 -0.700538,0.35052 -0.351223,0.20963 -1.050616,0.63167 -0.350269,0.20932 -0.700633,0.41993 -0.350936,0.28104 -0.771393,0.41999 -0.350364,0.20932 -0.910719,0.56067 -0.07343,0.0692 h -0.07343 l -0.350269,0.20994 -0.770439,0.49054 -0.350364,0.21054 -0.700538,0.4196 v 0 l -0.07343,0.0702 h -0.07343 v 0.0687 h -0.07343 l -0.07343,0.0692 h -0.07343 v 0.0702 h -0.07343 l -0.07343,0.0689 -0.14047,0.0689 h -0.07343 l -0.350269,0.27951 h -0.07343 l -0.07343,0.0687 v 0 l -0.07343,0.0699 h -0.07343 -0.07343 v 0.0699 h -0.07343 l -0.07343,0.0687 h -0.07343 v 0.0702 h -0.07343 l -0.84034,0.56029 h -0.07343 l -0.07343,0.0695 -0.350269,0.20962 -0.772251,0.49051 -0.350365,0.21055 -0.07343,0.0695 -0.700538,0.41999 -0.421124,0.28104 -0.351318,0.20963 -0.421028,0.28103 -0.350269,0.20963 -0.42017,0.28072 -0.771679,0.49088 -0.42017,0.28103 -0.771488,0.49094 -0.350269,0.28073 -0.42017,0.20962 -0.419217,0.28104 -0.350364,0.28012 -0.420456,0.20931 -0.420171,0.2789 -0.418644,0.28104 -0.350269,0.28103 -0.280749,0.14036 -0.490357,0.35015 -0.28075,0.14067 -0.277697,0.21024 -0.280654,0.14036 -0.210562,0.20963 -0.280749,0.14036 -0.280749,0.20963 -0.280749,0.14067 -0.210467,0.20963 -0.560259,0.35061 -0.277602,0.14036 -0.20751,0.20963 -0.280749,0.14068 -0.280749,0.20962 h -0.07343 l -0.210562,0.14036 -0.280749,0.21025 -0.20751,0.14035 -0.280749,0.20963 -0.28075,0.20964 -0.280749,0.14036 -0.280654,0.21086 -0.280749,0.14005 -0.280654,0.20932 -0.210657,0.21055 -0.207415,0.069 -0.07343,0.0695 -0.28075,0.21025 -0.560258,0.35011 -0.280749,0.21024 -0.280654,0.14037 -0.280749,0.20962 -0.28075,0.20963 -0.277697,0.14037 -0.280749,0.21023 -0.491215,0.41966 -0.28075,0.14068 -0.28065,0.20963 -0.28075,0.21023 -0.28075,0.14037 -0.0734,0.0692 -0.21056,0.14006 -0.28065,0.21055 -0.28075,0.20933 -0.28066,0.14067 -0.28074,0.20963 -0.14038,0.0699 -0.14037,0.14006 -0.28075,0.21023 -0.34999,0.20963 -0.49035,0.35048 h -0.0734 l -0.13733,0.14037 -0.14037,0.0692 -0.28075,0.20964 -0.28065,0.21023 -0.56036,0.35018 -0.21046,0.21023 h -0.0706 l -0.2777,0.20934 -1.19185,0.84183 c -17.38184,12.12596 -35.18577,28.24522 -45.48814,44.7879 -6.10677,9.78795 -15.77259,29.9834 -6.75581,41.59529 0.0305,0.0304 23.03001,11.81544 46.12316,25.47156 37.333342,22.07624 79.979848,33.47874 118.0558835,31.35796 30.2843875,-1.68665 64.0872935,-11.25204 88.4964515,-23.00016 24.565745,-11.82478 54.772705,-30.47325 84.215505,-53.19164 4.55665,-3.36464 13.23536,-11.88737 18.66191,-14.45839 4.78456,-2.26675 20.20784,-0.95198 19.49929,4.28599 -0.55416,4.10159 -18.66744,11.42194 -25.19619,16.27125 -32.20739,23.92118 -68.06508,47.3507 -91.371181,58.09247 -24.07882,11.09782 -64.604258,23.91143 -91.9949451,25.52785 -25.0226289,1.47647 -46.2711649,-1.29954 -68.0244579,-8.65489 -21.029582,-7.11118 -33.4966,-13.28621 -55.889106,-26.21888 -7.14156,-4.1248 -14.00714,-7.56783 -23.672,-13.60285 z" />
        <path
           inkscape:connector-curvature="0"
           id="path4750"
           style="fill:#e09d00;fill-rule:evenodd;stroke:none;stroke-width:0.9536317"
           d="m 223.78724,-444.86755 c -0.4771,0 -19.35911,9.23045 -43.74023,26.71274 -21.55494,15.4556 -47.09787,39.33608 -72.56012,50.10239 -54.262979,22.9446 -87.58373,24.15377 -110.5564318,19.38388 -22.9723202,-4.7701 -28.7162352,-19.38388 -35.1766132,-38.04919 -0.324712,-0.93778 -0.814115,-1.88301 -1.4376,-2.83192 -7.068414,-1.43129 -14.044897,-3.32964 -21.075547,-5.70651 -21.029868,-7.11116 -33.496886,-13.28618 -55.889108,-26.21885 -7.14147,-4.12484 -14.00742,-7.56783 -23.672,-13.60286 0.80763,0.85451 0.50628,2.36757 1.40536,3.26276 10.56948,10.52709 22.7939,20.84589 33.45207,32.91953 6.605042,7.48306 12.912839,15.44363 18.958292,22.68328 l 28.760197,27.48188 c 14.62585,10.40268 29.997821,16.39737 50.211762,18.8922 51.404755,6.34484 89.838497,-7.90936 133.187929,-36.49917 20.39751,-13.45723 48.64237,-38.26839 64.9734,-50.53437 19.56576,-14.72531 29.08091,-18.02202 35.88183,-22.54921 z m -337.42027,13.06746 c 0.67498,-12.4538 6.7026,-47.93985 49.541357,-97.06193 42.33362,-48.5423 53.599634,-60.69215 56.482272,-63.66892 -2.0605121,0.27615 -4.172425,0.62306 -6.357577,1.05754 l -14.78873,4.04748 c -1.971252,0.67984 -4.010784,1.43467 -6.125748,2.27383 l -0.841199,0.35054 v 0 l -0.841675,0.27951 v 0.0692 l -0.700538,0.28104 h -0.140375 v 0.069 h -0.07343 l -0.772251,0.28164 v 0.0689 l -0.63016,0.20931 -0.420456,0.21055 -0.490453,0.20963 -0.140279,0.0695 h -0.07343 l -0.699775,0.28104 -0.140279,0.0695 -0.07343,0.0695 v 0 l -0.770153,0.35018 v 0 h -0.07343 l -0.701301,0.35048 h -0.140279 l -0.07343,0.069 -0.491216,0.21024 -0.14047,0.0698 -0.280749,0.13976 -0.700538,0.3509 h -0.07343 l -0.14028,0.0689 -0.491311,0.20963 -0.280654,0.14066 -0.140469,0.0695 -0.491216,0.20962 -0.140375,0.0695 -0.280749,0.14036 v 0 l -0.491216,0.21025 -0.280749,0.14067 -0.210562,0.14035 -0.489117,0.20933 h -0.07343 l -0.350364,0.21024 -0.49093,0.20994 -0.491311,0.2795 -0.490262,0.20963 v 0 l -0.491406,0.28012 -0.490549,0.20902 -0.07343,0.0699 -0.350269,0.14035 -0.07343,0.0699 -0.491311,0.20933 v 0 l -0.490357,0.28133 -0.491216,0.20933 -0.419217,0.28133 h -0.07343 l -0.491025,0.28073 h -0.07343 l -0.350269,0.21024 h -0.07343 l -0.560545,0.28072 -0.418931,0.28103 h -0.07343 l -0.490453,0.28073 -0.491216,0.28134 -0.560544,0.27921 -0.49093,0.21024 v 0.0692 l -0.560354,0.28073 v 0 l -0.490548,0.21024 v 0.0692 l -0.560354,0.28103 -0.419217,0.20963 -0.07343,0.0702 -0.560164,0.2789 -0.490452,0.28103 v 0 l -0.56045,0.28042 -0.560354,0.35051 v 0 c -1.05176,0.56075 -2.173422,1.19163 -3.294225,1.82324 l -0.560259,0.34981 -0.560449,0.28133 v 0 l -0.350364,0.20963 -0.631305,0.42144 -0.349982,0.20962 h -0.07343 l -0.07343,0.0689 -0.560544,0.28134 -0.350269,0.21054 -0.28075,0.20934 -0.701205,0.42035 -0.350364,0.20932 -0.700538,0.35052 -0.351223,0.20962 -1.050616,0.63171 -0.350269,0.20931 -0.700347,0.41997 -0.351222,0.28104 -0.771298,0.42001 -0.350364,0.20963 -0.910432,0.56063 -0.07343,0.0695 h -0.07343 l -0.350268,0.20993 -0.770535,0.49051 -0.350364,0.21055 -0.700538,0.41959 v 0 l -0.07343,0.0702 h -0.07343 v 0.0687 h -0.07343 l -0.07343,0.0692 h -0.07343 v 0.0702 h -0.07343 l -0.07343,0.0689 -0.140279,0.0689 h -0.07343 l -0.349983,0.27951 h -0.07343 l -0.07057,0.0687 v 0 l -0.07343,0.0699 h -0.07343 -0.07343 v 0.0699 h -0.07343 l -0.07343,0.0687 h -0.07343 v 0.0702 h -0.07343 l -0.84034,0.56033 h -0.07343 l -0.07343,0.0695 -0.350269,0.20962 -0.772346,0.49054 -0.349887,0.21056 -0.07343,0.0695 -0.700252,0.42006 -0.421505,0.28103 -0.350841,0.20933 -0.42141,0.28103 -0.350269,0.20963 -0.42017,0.28073 -0.771393,0.49087 -0.420265,0.28104 -0.771679,0.49097 -0.350269,0.28072 -0.42017,0.20962 -0.419217,0.28104 -0.350364,0.28012 -0.420456,0.20933 -0.42017,0.27889 -0.418645,0.28103 -0.349982,0.28103 -0.28075,0.14038 -0.489976,0.35016 -0.280749,0.14067 -0.280749,0.21025 -0.280749,0.14035 -0.210562,0.20963 -0.280749,0.14037 -0.283801,0.20963 -0.280654,0.14067 -0.210562,0.20963 -0.560258,0.3506 -0.277603,0.14037 -0.20751,0.20962 -0.280749,0.14067 -0.280749,0.20963 h -0.07343 l -0.210562,0.14037 -0.280749,0.21023 -0.20751,0.14038 -0.280749,0.20963 -0.280654,0.20962 -0.277698,0.14037 -0.280749,0.21085 -0.280749,0.14006 -0.280749,0.20933 -0.210467,0.21054 -0.207415,0.069 -0.07343,0.0695 -0.280749,0.21024 -0.560259,0.3501 -0.280749,0.21025 -0.280654,0.14036 -0.280654,0.20962 -0.280749,0.20965 -0.277793,0.14036 -0.280654,0.21024 -0.491311,0.41966 -0.280758,0.14066 -0.28074,0.20963 -0.28056,0.21023 -0.28075,0.14038 -0.0734,0.0692 -0.21056,0.14006 -0.28075,0.21055 -0.28075,0.20932 -0.28075,0.14067 -0.28056,0.20962 -0.14047,0.0699 -0.14028,0.14006 -0.27779,0.21023 -0.35027,0.20964 -0.49036,0.35048 h -0.0734 l -0.13732,0.14035 -0.14028,0.0695 -0.28075,0.20963 -0.28075,0.21024 -0.56064,0.35018 -0.21046,0.21024 h -0.0734 l -0.2777,0.20933 -1.19185,0.84181 c -17.38166,12.12595 -35.18586,28.24521 -45.48814,44.78791 -6.10677,9.78794 -15.7724,29.98339 -6.75591,41.59526 0.0315,0.0305 22.67889,11.63545 45.59209,25.15805 z" />
        <path
           inkscape:connector-curvature="0"
           id="path4752"
           style="fill:#191919;fill-opacity:1;fill-rule:evenodd;stroke:none;stroke-width:0.9536317"
           d="m 22.77321,-569.30915 c -1.823153,-1.89232 20.396752,-6.44896 29.156336,0.4198 8.829772,6.86887 8.270085,12.26509 5.607546,15.13913 -2.80301,2.94357 -28.666837,-13.10621 -34.763882,-15.56041 v 9.5e-4 z" />
        <path
           inkscape:connector-curvature="0"
           id="path4754"
           style="fill:#d9dadb;fill-rule:evenodd;stroke:none;stroke-width:0.9536317"
           d="m 47.13173,693.90566 c 63.69802,-2.80121 131.4362,-18.65876 191.73729,-54.15757 39.81241,-23.43733 75.71645,-56.10598 108.82397,-95.4835 -0.9914,22.81107 -2.11773,42.79369 -2.4289,56.43758 -70.4689,85.96053 -153.02013,135.78219 -284.661931,141.57513 -149.477766,6.57803 -231.450709,-46.05716 -257.128389,-71.74937 16.88815,-9.32469 30.52814,-18.96709 40.55987,-32.62511 -0.16479,-0.11961 83.216379,61.27478 203.09809,56.00284 z M 350.02948,541.43902 c 1.07093,-1.30471 2.13776,-2.61758 3.19724,-3.94285 -1.05948,1.32527 -2.12631,2.63814 -3.19724,3.94285 z" />
        <path
           inkscape:connector-curvature="0"
           id="path4756"
           style="fill:#d9dadb;fill-rule:evenodd;stroke:none;stroke-width:0.9536317"
           d="m 82.31025,-699.20307 c 0,0 39.37784,-22.66121 93.63538,-10.45911 43.2061,9.71701 67.58569,49.90043 75.72456,65.86746 0.1007,-36.1259 -14.76622,-78.79753 -52.9915,-98.22516 -41.0014,-20.83763 -87.97463,-1.1449 -113.479317,35.91611 z" />
        <path
           inkscape:connector-curvature="0"
           id="path4758"
           style="fill:#d9dadb;fill-rule:evenodd;stroke:none;stroke-width:0.9536317"
           d="m -160.67368,-671.63535 c 9.22181,-10.91193 28.0568,-27.28656 58.26356,-27.64761 33.836283,-0.40461 54.795868,27.14477 63.273559,41.19371 -12.863157,-51.65732 -40.801896,-86.00174 -85.677329,-70.34091 v 0 0 0 c -19.49223,6.79207 -31.71273,29.24054 -35.85807,56.79481 z" />
        <path
           inkscape:connector-curvature="0"
           id="path4760"
           style="fill:#d9dadb;fill-rule:evenodd;stroke:none;stroke-width:0.9536317"
           d="m -143.97473,-359.40835 c 7.85449,1.76393 19.28567,8.24945 33.56488,27.15966 28.51187,37.75691 59.795282,62.04508 108.9649152,65.20552 54.1779158,3.48233 109.0816448,-35.0895 136.8626448,-58.40597 17.30012,-14.5204 48.5494,-40.76622 75.6188,-55.8932 12.27363,-6.85893 26.48999,-10.20603 32.86377,-11.4559 -2.70545,-14.5555 -5.1313,-27.88878 -7.46531,-39.52832 -7.70592,3.99261 -21.15556,9.59721 -41.68067,25.49925 -14.91966,11.6287 -42.52034,35.79516 -63.67532,50.43535 -13.8126,9.56312 -28.93166,17.8321 -43.805267,24.3068 -21.404646,9.3209 -42.300147,14.92879 -58.04804,15.34208 -56.452137,2.98498 -83.305548,-10.9963 -109.044545,-37.8193 -10.795492,-11.25087 -18.973456,-23.57696 -32.592078,-38.61662 -6.03315,-6.66293 -14.38296,-15.5149 -22.89508,-21.59804 -0.0791,2.66248 -3.21107,24.83199 -8.6687,55.36869 z" />
        <path
           inkscape:connector-curvature="0"
           id="path4762"
           style="fill:#6e6f70;fill-rule:evenodd;stroke:none;stroke-width:0.9536317"
           d="m -341.95697,-32.440491 c -71.70691,77.905618 -95.72565,186.125311 -84.69089,276.856191 6.78976,56.02695 36.95227,102.35224 71.84089,142.89512 6.18182,7.18414 12.08557,14.37216 18.49016,21.22001 1.20491,1.28789 -29.00977,-21.30085 -34.31406,-25.89129 -117.66766,-101.82268 -91.66718,-303.983557 25.6814,-417.082829 3.85324,-3.713261 8.38881,-3.860979 2.9925,2.002807 z" />
        <path
           inkscape:connector-curvature="0"
           id="path4764"
           style="fill:#191919;fill-opacity:1;fill-rule:evenodd;stroke:none;stroke-width:0.9536317"
           d="m -16.195043,-569.44974 c -3.013857,-4.48523 -15.561458,-2.17302 -21.589173,0 -5.957814,2.24297 -10.583691,8.76149 -8.129138,13.17757 1.260796,2.24265 3.994191,3.36483 6.096663,2.94359 3.224038,-0.70094 6.659019,-4.27581 11.003861,-7.56971 4.626258,-3.57498 11.354225,-6.72821 12.615403,-8.55145 v 0 z" />
        <path
           inkscape:connector-curvature="0"
           id="path4766"
           style="fill:#6e6f70;fill-rule:evenodd;stroke:none;stroke-width:0.9536317"
           d="m 433.77036,-51.266389 c 72.29177,75.687992 97.75593,156.861839 95.45768,240.508749 -1.06587,38.81576 -17.3294,87.92142 -25.66891,118.43231 -16.64507,60.90304 14.09859,15.98015 21.5147,-4.25348 12.71458,-34.68881 21.46959,-89.87513 20.05611,-130.4981 C 541.74016,75.460945 497.93938,0.38762284 435.51455,-51.832212 c -3.10273,-2.594529 -6.04545,-3.93839 -1.74419,0.565823 z" />
        <path
           inkscape:connector-curvature="0"
           id="path4768"
           style="fill:#00000f;fill-opacity:1;fill-rule:evenodd;stroke:none;stroke-width:0.9536317"
           d="m 682.43241,374.36468 c 1.22999,-2.30886 3.7205,-11.56834 3.90855,-13.44873 4.70484,-46.89169 -86.51432,-57.44298 -157.51545,-55.07471 -32.21806,1.07443 -57.32633,4.87417 -72.32114,9.30117 -26.12379,7.71236 -38.98628,25.40444 -41.88055,47.53804 -5.85921,44.80778 7.4369,139.46423 51.8955,160.17355 45.97515,21.41538 115.59914,-9.15282 156.69828,-55.2621 27.83127,-31.22227 45.55384,-67.57373 59.21481,-93.22722 z" />
        <path
           inkscape:connector-curvature="0"
           id="path4770"
           style="fill:#6e6f70;fill-rule:evenodd;stroke:none;stroke-width:0.9536317"
           d="m 432.74082,351.65671 c -11.43938,13.6817 61.46128,3.32278 110.78502,12.6243 27.49568,5.18538 50.03448,20.74863 67.46763,21.31373 51.06031,1.65534 58.33346,-27.41332 18.10165,-49.58197 -51.16892,-28.1952 -170.48217,-15.30019 -196.3543,15.64394 z" />
        <path
           inkscape:connector-curvature="0"
           id="path4772"
           style="fill:#6e6f70;fill-rule:evenodd;stroke:none;stroke-width:0.9536317"
           d="m 166.99465,-920.34544 c 7.89951,24.76212 -8.85447,39.29237 11.89399,50.29904 14.31925,7.59557 29.58194,-4.41742 55.76161,0.076 46.06556,7.90662 77.13536,34.27624 66.01334,-7.33855 -4.16575,-15.58582 -21.08756,-37.02098 -40.43332,-54.09762 -34.95775,-30.8555 -82.38786,-52.76646 -108.62761,-37.82012 -13.6294,7.76326 6.61896,21.3817 15.39199,48.88117 z" />
        <path
           inkscape:connector-curvature="0"
           id="path4774"
           style="fill:#6e6f70;fill-rule:evenodd;stroke:none;stroke-width:0.9536317"
           d="m 359.79448,-382.12671 c -0.75222,-6.47393 -7.88358,-14.97481 -15.11564,-21.88244 -13.06875,-12.48079 -30.80096,-21.34293 -40.60926,-15.29801 -18.07189,11.13652 1.85491,62.5606 16.43098,67.77188 23.39097,8.36213 41.3591,-12.80553 39.29392,-30.59143 z" />
        <path
           inkscape:connector-curvature="0"
           id="path4776"
           style="fill:#6e6f70;fill-rule:evenodd;stroke:none;stroke-width:0.9536317"
           d="m -73.425534,-612.78028 c -2.146148,-0.73231 -0.259388,-7.6332 -9.499316,-18.25191 -9.241073,-10.61907 -17.24004,-10.92301 -15.104954,-18.48659 2.134418,-7.56304 15.267357,0.0214 22.733054,12.9136 7.465887,12.89235 4.017841,24.5568 1.871216,23.8249 z" />
        <path
           inkscape:connector-curvature="0"
           id="path4778"
           style="fill:#6e6f70;fill-rule:evenodd;stroke:none;stroke-width:0.9536317"
           d="m 179.68482,-611.15222 c -2.63946,-1.01311 0.0362,-9.52083 -10.97525,-23.18364 -11.01273,-13.66284 -21.91446,-14.31748 -18.89993,-23.63913 3.01481,-9.32144 19.96943,0.64479 28.66407,17.0558 8.69493,16.41118 3.84991,30.77967 1.21111,29.76697 z" />
      </g>
    </g>
  </g>
</svg>
